<svg width="64" height="64" viewBox="0 0 64 64" fill="none" xmlns="http://www.w3.org/2000/svg">
<rect width="64" height="64" rx="8" fill="#068587"/>
<rect width="64" height="64" rx="8" fill="url(#paint0_linear)"/>
<path d="M30.6035 43.7246L30.9863 46.3496L31.5469 43.9844L35.4844 30.0938H37.6992L41.541 43.9844L42.0879 46.3906L42.5117 43.7109L45.6016 30.0938H48.2402L43.4141 50H41.0215L36.9199 35.4941L36.6055 33.9766L36.291 35.4941L32.0391 50H29.6465L24.834 30.0938H27.459L30.6035 43.7246Z" fill="#068587"/>
<path d="M30.6035 43.7246L30.9863 46.3496L31.5469 43.9844L35.4844 30.0938H37.6992L41.541 43.9844L42.0879 46.3906L42.5117 43.7109L45.6016 30.0938H48.2402L43.4141 50H41.0215L36.9199 35.4941L36.6055 33.9766L36.291 35.4941L32.0391 50H29.6465L24.834 30.0938H27.459L30.6035 43.7246Z" fill="url(#paint1_linear)"/>
<path d="M17.6406 36V13.25H25.0781C27.5469 13.25 29.401 13.7604 30.6406 14.7812C31.8906 15.8021 32.5156 17.3125 32.5156 19.3125C32.5156 20.375 32.2135 21.3177 31.6094 22.1406C31.0052 22.9531 30.1823 23.5833 29.1406 24.0312C30.3698 24.375 31.3385 25.0312 32.0469 26C32.7656 26.9583 33.125 28.1042 33.125 29.4375C33.125 31.4792 32.4635 33.0833 31.1406 34.25C29.8177 35.4167 27.9479 36 25.5312 36H17.6406ZM20.6406 25.3594V33.5469H25.5938C26.9896 33.5469 28.0885 33.1875 28.8906 32.4688C29.7031 31.7396 30.1094 30.7396 30.1094 29.4688C30.1094 26.7292 28.6198 25.3594 25.6406 25.3594H20.6406ZM20.6406 22.9531H25.1719C26.4844 22.9531 27.5312 22.625 28.3125 21.9688C29.1042 21.3125 29.5 20.4219 29.5 19.2969C29.5 18.0469 29.1354 17.1406 28.4062 16.5781C27.6771 16.0052 26.5677 15.7188 25.0781 15.7188H20.6406V22.9531Z" fill="#068587"/>
<path d="M17.6406 36V13.25H25.0781C27.5469 13.25 29.401 13.7604 30.6406 14.7812C31.8906 15.8021 32.5156 17.3125 32.5156 19.3125C32.5156 20.375 32.2135 21.3177 31.6094 22.1406C31.0052 22.9531 30.1823 23.5833 29.1406 24.0312C30.3698 24.375 31.3385 25.0312 32.0469 26C32.7656 26.9583 33.125 28.1042 33.125 29.4375C33.125 31.4792 32.4635 33.0833 31.1406 34.25C29.8177 35.4167 27.9479 36 25.5312 36H17.6406ZM20.6406 25.3594V33.5469H25.5938C26.9896 33.5469 28.0885 33.1875 28.8906 32.4688C29.7031 31.7396 30.1094 30.7396 30.1094 29.4688C30.1094 26.7292 28.6198 25.3594 25.6406 25.3594H20.6406ZM20.6406 22.9531H25.1719C26.4844 22.9531 27.5312 22.625 28.3125 21.9688C29.1042 21.3125 29.5 20.4219 29.5 19.2969C29.5 18.0469 29.1354 17.1406 28.4062 16.5781C27.6771 16.0052 26.5677 15.7188 25.0781 15.7188H20.6406V22.9531Z" fill="url(#paint2_linear)"/>
<defs>
<linearGradient id="paint0_linear" x1="32" y1="0" x2="32" y2="64" gradientUnits="userSpaceOnUse">
<stop stop-color="white"/>
<stop offset="1" stop-color="white" stop-opacity="0"/>
</linearGradient>
<linearGradient id="paint1_linear" x1="39.5" y1="24" x2="39.5" y2="54" gradientUnits="userSpaceOnUse">
<stop stop-color="white"/>
<stop offset="1" stop-color="white" stop-opacity="0"/>
</linearGradient>
<linearGradient id="paint2_linear" x1="22" y1="6" x2="22" y2="30" gradientUnits="userSpaceOnUse">
<stop stop-color="white"/>
<stop offset="1" stop-color="white" stop-opacity="0"/>
</linearGradient>
</defs>
</svg>
